<svg width="767" height="141" viewBox="0 0 767 141" fill="none" xmlns="http://www.w3.org/2000/svg">
<path fill-rule="evenodd" clip-rule="evenodd" d="M388.882 72.9803L420.309 59.9237C418.578 55.5361 413.386 52.4693 407.268 52.4693C399.403 52.4693 388.487 59.3924 388.882 72.9803ZM425.759 85.627L437.738 93.6128C433.882 99.3364 424.56 109.19 408.452 109.19C388.487 109.19 374.064 93.7342 374.064 74.0431C374.064 53.1221 388.624 38.8813 406.721 38.8813C424.97 38.8813 433.882 53.3954 436.812 61.2598L438.406 65.2526L391.402 84.6857C395 91.7454 400.587 95.3436 408.452 95.3436C416.301 95.3436 421.766 91.4721 425.759 85.627ZM349.591 107.064H365.031V3.7348H349.591V107.064ZM324.389 74.1645C324.389 61.7911 316.129 52.7274 305.608 52.7274C294.966 52.7274 286.039 61.7911 286.039 74.1645C286.039 86.4165 294.966 95.3436 305.608 95.3436C316.129 95.3436 324.389 86.4165 324.389 74.1645ZM337.961 41.022V104.134C337.961 130.095 322.658 140.753 304.546 140.753C287.496 140.753 277.248 129.306 273.392 119.984L286.843 114.382C289.242 120.106 295.102 126.892 304.561 126.892C316.145 126.892 323.341 119.711 323.341 106.259V101.204H322.81C319.348 105.47 312.683 109.19 304.303 109.19C286.722 109.19 270.614 93.8709 270.614 74.1645C270.614 54.3215 286.722 38.8813 304.303 38.8813C312.698 38.8813 319.348 42.601 322.81 46.7305H323.341V41.0068C323.326 41.022 337.961 41.022 337.961 41.022V41.022ZM169.425 74.0431C169.425 61.3812 160.407 52.7426 149.946 52.7426C139.486 52.7426 130.468 61.3964 130.468 74.0431C130.468 86.5531 139.486 95.3436 149.946 95.3436C160.392 95.3436 169.425 86.5531 169.425 74.0431V74.0431ZM184.577 74.0431C184.577 94.2808 169.015 109.19 149.931 109.19C130.847 109.19 115.286 94.2808 115.286 74.0431C115.286 53.6687 130.847 38.8965 149.931 38.8965C169.03 38.8965 184.577 53.6687 184.577 74.0431ZM247.081 74.0431C247.081 61.3812 238.063 52.7426 227.603 52.7426C217.142 52.7426 208.124 61.3964 208.124 74.0431C208.124 86.5531 217.142 95.3436 227.603 95.3436C238.063 95.3436 247.081 86.5531 247.081 74.0431ZM262.248 74.0431C262.248 94.2808 246.687 109.19 227.603 109.19C208.519 109.19 192.957 94.2808 192.957 74.0431C192.957 53.6687 208.519 38.8965 227.603 38.8965C246.687 38.8965 262.248 53.6687 262.248 74.0431ZM55.9387 109.19C25.8478 109.19 0.554443 84.6857 0.554443 54.5948C0.554443 24.5039 25.863 0 55.9539 0C72.6086 0 84.4507 6.5283 93.3778 15.0606L82.8566 25.5818C76.4649 19.5849 67.8111 14.924 55.9539 14.924C33.9854 14.924 16.7993 32.6415 16.7993 54.61C16.7993 76.5785 33.9854 94.2808 55.9539 94.2808C70.1947 94.2808 78.3171 88.5572 83.5246 83.3649C87.7908 79.1139 90.5843 72.9803 91.647 64.5998H55.9539V49.691H106.146C106.692 52.3479 106.951 55.5513 106.951 59.0128C106.951 70.202 103.884 84.0481 94.0458 93.9013C84.4355 103.876 72.1836 109.19 55.9387 109.19" fill="white"/>
<path d="M474.883 106.091V14.3647H486.669L518.568 70.2206H519.081L550.98 14.3647H562.766V106.091H550.98V51.6447L551.493 36.2715H550.98L522.284 86.6187H515.366L486.669 36.2715H486.157L486.669 51.6447V106.091H474.883Z" fill="white"/>
<path d="M599.022 108.141C592.36 108.141 586.787 106.219 582.303 102.376C577.819 98.5329 575.577 93.4726 575.577 87.1311C575.577 80.2773 578.204 74.9607 583.52 71.0534C588.837 67.146 595.37 65.2244 603.121 65.2244C610.039 65.2244 615.74 66.5055 620.16 69.0677V67.2741C620.16 62.6621 618.558 58.947 615.42 56.1926C612.281 53.4382 608.374 52.029 603.762 52.029C600.367 52.029 597.228 52.8617 594.474 54.4631C591.719 56.0645 589.798 58.3064 588.773 61.1248L578.012 56.5129C579.485 52.7336 582.303 49.2747 586.595 46.0719C590.887 42.8692 596.523 41.2678 603.505 41.2678C611.512 41.2678 618.174 43.6379 623.491 48.3139C628.807 52.9899 631.433 59.6516 631.433 68.1709V106.091H620.16V97.3799H619.647C614.971 104.554 608.053 108.141 599.022 108.141V108.141ZM600.943 97.3799C605.811 97.3799 610.231 95.5864 614.203 91.9352C618.174 88.2841 620.16 83.9925 620.16 79.0602C616.829 76.3059 611.833 74.9607 605.171 74.9607C599.47 74.9607 595.114 76.1777 592.232 78.6759C589.349 81.174 587.876 84.0565 587.876 87.3874C587.876 90.462 589.221 92.8961 591.847 94.6896C594.474 96.4831 597.548 97.3799 600.943 97.3799Z" fill="white"/>
<path d="M677.361 108.141C672.557 108.141 668.265 107.116 664.486 105.067C660.707 103.017 657.824 100.455 655.966 97.3799H655.454L655.966 106.091V133.763H644.18V43.3176H655.454V52.029H655.966C657.824 48.9544 660.707 46.3922 664.486 44.3425C668.265 42.2927 672.557 41.2678 677.361 41.2678C685.496 41.2678 692.478 44.4706 698.371 50.8761C704.264 57.2816 707.21 65.2244 707.21 74.7045C707.21 84.1846 704.264 92.1274 698.371 98.5329C692.478 104.938 685.496 108.141 677.361 108.141V108.141ZM675.439 97.3799C680.884 97.3799 685.624 95.3302 689.531 91.1666C693.439 87.003 695.424 81.5584 695.424 74.7045C695.424 67.8506 693.439 62.4059 689.531 58.2424C685.624 54.0788 680.884 52.029 675.439 52.029C669.866 52.029 665.19 54.0788 661.283 58.1783C657.376 62.2778 655.454 67.7866 655.454 74.7045C655.454 81.6224 657.376 87.1311 661.283 91.2307C665.19 95.3302 669.93 97.3799 675.439 97.3799V97.3799Z" fill="white"/>
<path d="M741.352 108.141C734.37 108.141 728.541 106.412 723.993 103.017C719.445 99.6218 716.05 95.3301 713.936 90.2058L724.441 85.85C727.772 93.7288 733.473 97.6362 741.48 97.6362C745.131 97.6362 748.141 96.8034 750.511 95.2021C752.881 93.6007 754.034 91.4228 754.034 88.7966C754.034 84.6971 751.152 81.9427 745.451 80.4694L732.768 77.3948C728.733 76.3699 724.954 74.4483 721.366 71.5658C717.779 68.6833 715.986 64.84 715.986 59.9718C715.986 54.3991 718.42 49.9152 723.352 46.4563C728.284 42.9973 734.113 41.2678 740.839 41.2678C746.412 41.2678 751.344 42.5489 755.7 45.0471C760.056 47.5452 763.194 51.1963 765.052 55.8723L754.803 60.1C752.497 54.5272 747.693 51.7728 740.455 51.7728C736.932 51.7728 733.985 52.4774 731.615 53.9507C729.245 55.424 728.028 57.3456 728.028 59.8437C728.028 63.4308 730.782 65.8649 736.355 67.146L748.782 70.0925C754.675 71.4377 759.031 73.8077 761.849 77.1386C764.668 80.4694 766.077 84.2487 766.077 88.4122C766.077 94.0491 763.771 98.7251 759.159 102.504C754.547 106.219 748.59 108.141 741.352 108.141Z" fill="white"/>
</svg>
