<svg width="325" height="438" viewBox="0 0 325 438" fill="none" xmlns="http://www.w3.org/2000/svg">
<path d="M98.3354 228.693C98.3354 226.222 98.5256 223.465 98.9058 220.424C99.286 217.192 99.8563 213.77 100.617 210.158L131.128 67.2963L173.331 61.5932L140.538 215.576C140.158 217.287 139.873 218.903 139.683 220.424C139.493 221.754 139.398 223.18 139.398 224.701C139.398 228.503 140.253 231.259 141.964 232.97C143.865 234.491 146.907 235.252 151.089 235.252C156.412 235.252 161.449 232.97 166.202 228.408C170.955 223.655 174.471 217.572 176.753 210.158H188.729C182.646 227.457 174.471 240.575 164.206 249.509C153.94 258.444 142.154 262.912 128.847 262.912C119.342 262.912 111.833 259.965 106.32 254.072C100.997 247.988 98.3354 239.529 98.3354 228.693Z" fill="#F4F4F4"/>
<path d="M229.107 42.773C229.107 41.8225 228.822 40.967 228.252 40.2066C227.681 39.4462 226.826 38.6858 225.685 37.9254C221.503 35.4541 218.366 32.6976 216.275 29.6559C214.184 26.6143 213.139 23.3826 213.139 19.9607C213.139 14.4478 215.135 9.79026 219.127 5.98821C223.309 1.99607 228.252 0 233.955 0C239.468 0 243.84 1.71092 247.072 5.13276C250.494 8.5546 252.205 13.1171 252.205 18.8201C252.205 26.4242 249.068 34.6937 242.795 43.6285C236.521 52.3732 228.157 60.0723 217.701 66.7259C216.751 66.1556 216.085 65.5853 215.705 65.015C215.325 64.2546 215.135 63.4942 215.135 62.7338L229.107 42.773Z" fill="#F4F4F4"/>
<path d="M174.509 49.8887C174.509 52.36 174.319 55.1165 173.939 58.1581C173.559 61.3898 172.988 64.8117 172.228 68.4236L141.717 211.285L99.5139 216.989L132.307 63.0057C132.687 61.2948 132.972 59.6789 133.162 58.1581C133.352 56.8274 133.447 55.4016 133.447 53.8808C133.447 50.0788 132.592 47.3223 130.881 45.6114C128.98 44.0905 125.938 43.3301 121.756 43.3301C116.433 43.3301 111.395 45.6114 106.643 50.1738C101.89 54.9264 98.3733 61.0097 96.0921 68.4236L84.1156 68.4236C90.1989 51.1243 98.3733 38.0073 108.639 29.0725C118.904 20.1377 130.691 15.6702 143.998 15.6702C153.503 15.6702 161.012 18.6168 166.525 24.51C171.848 30.5933 174.509 39.0528 174.509 49.8887Z" fill="#F4F4F4"/>
<path fill-rule="evenodd" clip-rule="evenodd" d="M178.504 126.151L309.44 223.804L299.784 229.45C282.662 239.463 250.762 265.091 219.63 296.385C188.445 327.734 159.044 363.767 146.053 394.337L141.513 405.023L27.9368 279.145L29.7855 274.795C43.9606 241.436 71.255 210.152 99.0518 184.797C126.939 159.359 155.931 139.351 174.268 128.628L178.504 126.151ZM177.552 143.925C159.956 154.646 134.04 172.936 109.037 195.744C83.1471 219.359 58.7758 247.331 45.328 276.302L137.271 378.204C152.923 347.616 180.867 314.342 209.126 285.936C235.947 258.975 263.784 235.674 283.017 222.581L177.552 143.925Z" fill="#F4F4F4"/>
</svg>
