<svg width="488" height="571" viewBox="0 0 488 571" fill="none" xmlns="http://www.w3.org/2000/svg">
<path fill-rule="evenodd" clip-rule="evenodd" d="M312.329 40.2066C312.899 40.967 313.184 41.8225 313.184 42.773L299.212 62.7338C299.212 63.4942 299.402 64.2546 299.782 65.015C300.162 65.5853 300.828 66.1556 301.778 66.7259C312.234 60.0723 320.598 52.3732 326.872 43.6285C333.145 34.6937 336.282 26.4242 336.282 18.8201C336.282 13.1171 334.571 8.5546 331.149 5.13276C327.917 1.71092 323.545 0 318.032 0C312.329 0 307.386 1.99607 303.204 5.98821C299.212 9.79026 297.216 14.4478 297.216 19.9607C297.216 23.3826 298.261 26.6143 300.353 29.6559C302.444 32.6976 305.58 35.4541 309.763 37.9254C310.903 38.6858 311.759 39.4462 312.329 40.2066ZM182.983 220.424C182.603 223.465 182.413 226.222 182.413 228.693C182.413 239.529 185.074 247.988 190.397 254.072C195.91 259.965 203.419 262.912 212.924 262.912C226.231 262.912 238.018 258.444 248.283 249.509C258.549 240.575 266.723 227.457 272.806 210.158H260.83C258.549 217.572 255.032 223.655 250.279 228.408C245.527 232.97 240.489 235.252 235.166 235.252C230.984 235.252 227.942 234.491 226.041 232.97C224.33 231.259 223.475 228.503 223.475 224.701C223.475 223.18 223.57 221.754 223.76 220.424C223.95 218.903 224.235 217.287 224.615 215.576L225.521 211.322L225.794 211.285L236.624 160.577C245.922 153.909 254.465 148.29 261.629 143.925L367.094 222.581C347.861 235.674 320.024 258.975 293.204 285.936C264.945 314.342 237 347.616 221.348 378.204L129.405 276.302C141.691 249.834 163.095 224.199 186.445 201.959L184.694 210.158C183.933 213.77 183.363 217.192 182.983 220.424ZM258.345 128.628C253.327 131.562 247.511 135.192 241.138 139.438L256.305 68.4236C257.066 64.8117 257.636 61.3898 258.016 58.1581C258.396 55.1165 258.586 52.36 258.586 49.8887C258.586 39.0528 255.925 30.5933 250.602 24.51C245.089 18.6168 237.58 15.6702 228.075 15.6702C214.768 15.6702 202.981 20.1377 192.716 29.0725C182.45 38.0073 174.276 51.1243 168.193 68.4236H180.169C182.45 61.0097 185.967 54.9264 190.72 50.1738C195.472 45.6114 200.51 43.3301 205.833 43.3301C210.015 43.3301 213.057 44.0905 214.958 45.6114C216.669 47.3223 217.524 50.0788 217.524 53.8808C217.524 55.4016 217.429 56.8274 217.239 58.1581C217.049 59.6789 216.764 61.2948 216.384 63.0057L215.478 67.2594L215.205 67.2963L191.747 177.132C188.871 179.627 185.994 182.183 183.129 184.797C155.332 210.152 128.038 241.436 113.863 274.795L112.014 279.145L225.59 405.023L230.131 394.337C243.121 363.767 272.522 327.734 303.708 296.385C334.839 265.091 366.739 239.463 383.861 229.451L393.517 223.804L262.581 126.151L258.345 128.628ZM8.17947 512.306C7.96922 513.988 7.8641 515.513 7.8641 516.879C7.8641 522.871 9.33583 527.549 12.2793 530.913C15.3279 534.172 19.4803 535.802 24.7365 535.802C32.0951 535.802 38.6128 533.331 44.2895 528.39C49.9662 523.45 54.4865 516.196 57.8505 506.63H51.2277C49.9662 510.73 48.0214 514.093 45.3933 516.722C42.7652 519.245 39.9794 520.506 37.0359 520.506C34.7232 520.506 33.0412 520.086 31.99 519.245C31.0439 518.298 30.5708 516.774 30.5708 514.672C30.5708 513.831 30.6234 513.042 30.7285 512.306C30.8336 511.465 30.9913 510.572 31.2016 509.626L31.7026 507.273L31.8525 507.253L48.7249 428.252C49.1454 426.255 49.4607 424.363 49.671 422.576C49.8812 420.894 49.9864 419.369 49.9864 418.003C49.9864 412.011 48.5146 407.333 45.5712 403.969C42.5226 400.71 38.3702 399.081 33.114 399.081C25.7553 399.081 19.2377 401.551 13.561 406.492C7.88429 411.433 3.36397 418.686 5.03622e-06 428.252H6.6228C7.88429 424.153 9.82908 420.789 12.4572 418.161C15.0853 415.638 17.871 414.376 20.8145 414.376C23.1272 414.376 24.8092 414.797 25.8605 415.638C26.8066 416.584 27.2796 418.108 27.2796 420.21C27.2796 421.051 27.2271 421.84 27.1219 422.576C27.0168 423.417 26.8591 424.31 26.6489 425.256L26.1479 427.609L25.9979 427.629L9.12558 506.63C8.70509 508.627 8.38971 510.519 8.17947 512.306ZM240.256 418.492C245.219 418.492 249.423 420.062 252.867 423.202C254.764 424.883 256.154 426.781 257.036 428.897L278.938 425.937L261.466 507.98C261.264 508.891 261.112 509.752 261.01 510.563C260.909 511.272 260.858 512.031 260.858 512.842C260.858 514.867 261.314 516.336 262.226 517.248C263.239 518.058 264.859 518.463 267.088 518.463C269.924 518.463 272.608 517.248 275.14 514.817C275.636 514.321 276.106 513.798 276.551 513.248C276.418 511.913 276.352 510.511 276.352 509.043C276.352 503.27 277.263 497.142 279.087 490.66C280.91 484.177 283.341 478.404 286.379 473.34C290.127 467.262 294.584 462.704 299.749 459.666C305.016 456.526 310.891 454.956 317.373 454.956C322.944 454.956 327.097 456.171 329.832 458.602C332.668 460.932 334.086 464.578 334.086 469.541C334.086 477.948 330.642 485.291 323.754 491.571C316.867 497.75 308.663 501.092 299.141 501.599C299.04 503.321 298.939 504.637 298.838 505.549V507.676C298.838 512.335 299.597 515.627 301.117 517.551C302.737 519.476 305.624 520.438 309.777 520.438C314.537 520.438 318.893 519.375 322.843 517.248C326.894 515.019 331.503 510.968 336.668 505.093H336.785L345.901 462.4H340.887L342.102 456.323H347.116L351.674 435.357L374.16 432.318L368.994 456.323H378.11L376.895 462.4H367.779L358.055 507.98C357.853 508.891 357.701 509.752 357.599 510.563C357.498 511.272 357.447 512.031 357.447 512.842C357.447 514.867 357.903 516.336 358.815 517.248C359.828 518.058 361.448 518.463 363.677 518.463C366.513 518.463 369.197 517.248 371.729 514.817C374.261 512.284 376.135 509.043 377.35 505.093H383.732C380.49 514.31 376.135 521.299 370.665 526.06C365.196 530.82 358.916 533.2 351.826 533.2C346.762 533.2 342.761 531.63 339.823 528.49C336.987 525.249 335.569 520.742 335.569 514.969C335.569 514.675 335.574 514.374 335.584 514.065C331.504 519.209 327.206 523.309 322.691 526.363C315.803 530.921 308.257 533.2 300.053 533.2C292.254 533.2 286.329 531.175 282.277 527.123C280.717 525.523 279.465 523.614 278.521 521.397C277.131 523.136 275.65 524.69 274.076 526.06C268.607 530.82 262.327 533.2 255.237 533.2C250.173 533.2 246.172 531.63 243.234 528.49C240.398 525.249 238.98 520.742 238.98 514.969C238.98 513.652 239.082 512.183 239.284 510.563C239.487 508.841 239.791 507.018 240.196 505.093L253.857 441.13H250.588C250.79 439.509 250.891 438.547 250.891 438.243V437.028C250.891 435.407 250.334 434.141 249.22 433.23C248.207 432.318 246.84 431.862 245.118 431.862C242.586 431.862 240.358 432.926 238.433 435.053C236.61 437.18 235.293 440.269 234.483 444.321L231.9 456.323H242.991L241.928 462.4H230.685L213.213 544.443C211.389 553.053 208.199 559.484 203.641 563.739C199.083 568.094 193.208 570.272 186.017 570.272C181.054 570.272 176.85 568.702 173.407 565.562C169.862 562.422 168.089 558.522 168.089 553.863C168.089 548.596 169.862 544.291 173.407 540.949C176.85 537.606 183.789 534.315 194.221 531.073L195.761 523.809C194.999 524.665 194.214 525.466 193.406 526.212C188.24 530.871 182.264 533.2 175.478 533.2C171.122 533.2 167.628 531.985 164.995 529.554C162.462 527.123 160.994 523.679 160.589 519.223C157.449 523.882 153.954 527.376 150.105 529.706C146.358 532.036 142.306 533.2 137.951 533.2C131.671 533.2 126.708 531.073 123.062 526.819C120.206 523.393 118.501 518.816 117.945 513.089C113.639 518.693 109.087 523.118 104.29 526.363C97.4023 530.921 89.8564 533.2 81.6521 533.2C73.8529 533.2 67.9276 531.175 63.8761 527.123C59.9259 523.072 57.9508 517.045 57.9508 509.043C57.9508 503.27 58.8624 497.142 60.6856 490.66C62.5088 484.177 64.9397 478.404 67.9783 473.34C71.7259 467.262 76.1826 462.704 81.3482 459.666C86.6152 456.526 92.4898 454.956 98.9722 454.956C104.543 454.956 108.696 456.171 111.431 458.602C114.267 460.932 115.685 464.578 115.685 469.541C115.685 477.948 112.241 485.291 105.353 491.571C98.4658 497.75 90.2615 501.092 80.7405 501.599C80.6392 503.321 80.5379 504.637 80.4366 505.549V507.676C80.4366 512.335 81.1963 515.627 82.7156 517.551C84.3362 519.476 87.2229 520.438 91.3757 520.438C96.1362 520.438 100.492 519.375 104.442 517.248C108.379 515.082 112.842 511.195 117.831 505.586C118.09 500.881 118.921 496.006 120.327 490.964C122.049 484.785 124.429 479.164 127.468 474.099C131.215 468.123 135.571 463.565 140.534 460.425C145.497 457.184 150.916 455.564 156.79 455.564C160.741 455.564 163.779 456.273 165.906 457.691C168.033 459.007 169.097 460.881 169.097 463.312V464.376L170.768 456.323H192.646L181.707 507.98C181.504 508.891 181.353 509.752 181.251 510.563C181.15 511.272 181.099 512.031 181.099 512.842C181.099 515.07 181.606 516.741 182.619 517.855C183.632 518.868 185.201 519.375 187.328 519.375C189.962 519.375 192.342 518.159 194.469 515.728C196.596 513.196 198.318 509.651 199.635 505.093H199.727L212.605 444.321C214.428 435.812 217.669 429.381 222.328 425.025C226.988 420.67 232.964 418.492 240.256 418.492ZM193.158 536.087C187.283 538.012 183.029 540.24 180.395 542.772C177.762 545.304 176.445 548.292 176.445 551.736C176.445 552.951 177.104 554.066 178.42 555.078C179.636 556.193 181.003 556.75 182.522 556.75C184.447 556.75 186.169 555.737 187.688 553.711C189.207 551.685 190.372 548.748 191.183 544.899L193.158 536.087ZM89.7044 472.276C93.2495 466.097 96.7439 463.008 100.188 463.008C101.504 463.008 102.467 463.515 103.074 464.527C103.682 465.54 103.986 467.11 103.986 469.237C103.986 475.517 101.758 481.189 97.301 486.254C92.9456 491.217 87.8306 493.901 81.9559 494.306C83.6778 485.697 86.2607 478.353 89.7044 472.276ZM166.058 466.806C167.172 467.921 167.729 469.237 167.729 470.757L160.437 505.093C159.626 508.942 157.955 512.133 155.423 514.665C152.992 517.197 150.46 518.463 147.826 518.463C144.99 518.463 143.015 517.501 141.901 515.576C140.787 513.551 140.23 510.563 140.23 506.612C140.23 497.497 142.357 488.279 146.611 478.961C150.966 469.643 155.929 464.983 161.5 464.983C163.425 464.983 164.944 465.591 166.058 466.806ZM318.589 463.008C315.145 463.008 311.65 466.097 308.105 472.276C304.662 478.353 302.079 485.697 300.357 494.306C306.232 493.901 311.347 491.217 315.702 486.254C320.159 481.189 322.387 475.517 322.387 469.237C322.387 467.11 322.083 465.54 321.475 464.527C320.868 463.515 319.905 463.008 318.589 463.008ZM398.56 441.434C398.56 440.928 398.408 440.472 398.104 440.067C397.801 439.661 397.345 439.256 396.737 438.851C394.509 437.534 392.837 436.066 391.723 434.445C390.609 432.825 390.052 431.103 390.052 429.279C390.052 426.342 391.116 423.861 393.243 421.835C395.471 419.708 398.104 418.644 401.143 418.644C404.08 418.644 406.41 419.556 408.132 421.379C409.955 423.202 410.867 425.633 410.867 428.672C410.867 432.723 409.195 437.129 405.853 441.89C402.51 446.549 398.054 450.651 392.483 454.196C391.977 453.892 391.622 453.588 391.419 453.285C391.217 452.879 391.116 452.474 391.116 452.069L398.56 441.434ZM471.136 510.107C471.237 509.195 471.288 508.132 471.288 506.916C471.288 505.296 471.237 503.624 471.136 501.903C471.035 500.181 470.832 497.193 470.528 492.939C469.92 485.545 469.414 478.708 469.009 472.428C468.604 466.148 468.249 459.21 467.945 451.613L445.459 454.652C442.421 464.376 439.382 472.782 436.344 479.873C433.406 486.861 430.216 493.445 426.772 499.624C424.442 500.738 422.518 502.612 420.999 505.245C419.479 507.777 418.72 510.613 418.72 513.753C418.72 519.324 420.695 523.983 424.645 527.731C428.696 531.377 434.115 533.2 440.902 533.2C445.561 533.2 450.017 532.441 454.271 530.921C458.526 529.301 462.02 527.022 464.755 524.084C469.515 521.248 473.769 518.311 477.517 515.272C481.366 512.133 484.86 508.739 488 505.093H481.619C480.201 506.309 478.53 507.575 476.605 508.891C474.681 510.208 472.706 511.474 470.68 512.69C470.883 511.879 471.035 511.018 471.136 510.107ZM441.509 484.127C443.434 479.569 445.054 475.213 446.371 471.061C446.675 475.213 446.979 479.113 447.283 482.759C447.586 486.406 447.992 490.609 448.498 495.37C448.802 498.813 449.005 501.295 449.106 502.814C449.207 504.232 449.258 505.65 449.258 507.068C449.258 511.626 448.093 515.121 445.763 517.551C443.434 519.982 440.193 521.198 436.04 521.198C432.799 521.198 430.418 520.388 428.899 518.767C427.481 517.045 426.772 514.31 426.772 510.563C427.076 511.17 427.582 511.677 428.291 512.082C429 512.386 429.861 512.538 430.874 512.538C432.697 512.538 434.267 511.778 435.584 510.259C436.901 508.739 437.559 507.018 437.559 505.093C437.559 503.878 437.255 502.814 436.647 501.903C436.04 500.991 435.179 500.282 434.065 499.776C437.205 493.8 439.686 488.583 441.509 484.127Z" fill="#F4F4F4"/>
<path d="M182.413 228.693C182.413 226.222 182.603 223.465 182.983 220.424C183.363 217.192 183.933 213.77 184.694 210.158L215.205 67.2963L257.408 61.5932L224.615 215.576C224.235 217.287 223.95 218.903 223.76 220.424C223.57 221.754 223.475 223.18 223.475 224.701C223.475 228.503 224.33 231.259 226.041 232.97C227.942 234.491 230.984 235.252 235.166 235.252C240.489 235.252 245.527 232.97 250.279 228.408C255.032 223.655 258.549 217.572 260.83 210.158H272.806C266.723 227.457 258.549 240.575 248.283 249.509C238.018 258.444 226.231 262.912 212.924 262.912C203.419 262.912 195.91 259.965 190.397 254.072C185.074 247.988 182.413 239.529 182.413 228.693Z" fill="#F4F4F4"/>
<path d="M313.184 42.773C313.184 41.8225 312.899 40.967 312.329 40.2066C311.759 39.4462 310.903 38.6858 309.763 37.9254C305.58 35.4541 302.444 32.6976 300.352 29.6559C298.261 26.6143 297.216 23.3826 297.216 19.9607C297.216 14.4478 299.212 9.79026 303.204 5.98821C307.386 1.99607 312.329 0 318.032 0C323.545 0 327.917 1.71092 331.149 5.13276C334.571 8.5546 336.282 13.1171 336.282 18.8201C336.282 26.4242 333.145 34.6937 326.872 43.6285C320.598 52.3732 312.234 60.0723 301.778 66.7259C300.828 66.1556 300.162 65.5853 299.782 65.015C299.402 64.2546 299.212 63.4942 299.212 62.7338L313.184 42.773Z" fill="#F4F4F4"/>
<path d="M258.586 49.8887C258.586 52.36 258.396 55.1165 258.016 58.1581C257.636 61.3898 257.066 64.8117 256.305 68.4236L225.794 211.285L183.591 216.989L216.384 63.0057C216.764 61.2948 217.049 59.6789 217.239 58.1581C217.429 56.8274 217.524 55.4016 217.524 53.8808C217.524 50.0788 216.669 47.3223 214.958 45.6114C213.057 44.0905 210.015 43.3301 205.833 43.3301C200.51 43.3301 195.472 45.6114 190.72 50.1738C185.967 54.9264 182.45 61.0097 180.169 68.4236L168.193 68.4236C174.276 51.1243 182.45 38.0073 192.716 29.0725C202.981 20.1377 214.768 15.6702 228.075 15.6702C237.58 15.6702 245.089 18.6168 250.602 24.51C255.925 30.5933 258.586 39.0528 258.586 49.8887Z" fill="#F4F4F4"/>
<path fill-rule="evenodd" clip-rule="evenodd" d="M262.581 126.151L393.517 223.804L383.861 229.45C366.739 239.463 334.839 265.091 303.708 296.385C272.522 327.734 243.121 363.767 230.131 394.337L225.59 405.023L112.014 279.145L113.863 274.795C128.038 241.436 155.332 210.152 183.129 184.797C211.016 159.359 240.008 139.351 258.345 128.628L262.581 126.151ZM261.629 143.925C244.033 154.646 218.117 172.936 193.114 195.744C167.224 219.359 142.853 247.331 129.405 276.302L221.348 378.204C237 347.616 264.944 314.342 293.203 285.936C320.024 258.975 347.861 235.674 367.094 222.581L261.629 143.925Z" fill="#F4F4F4"/>
</svg>
