<svg width="785" height="276" viewBox="0 0 785 276" fill="none" xmlns="http://www.w3.org/2000/svg">
<path d="M12.6499 189.492C12.6499 187.293 12.819 184.841 13.1572 182.136C13.4954 179.261 14.0027 176.217 14.6791 173.004L41.8201 45.9234L79.3609 40.8503L50.1907 177.823C49.8525 179.345 49.5988 180.783 49.4297 182.136C49.2606 183.319 49.1761 184.588 49.1761 185.94C49.1761 189.322 49.937 191.774 51.459 193.296C53.15 194.649 55.8556 195.326 59.5759 195.326C64.3108 195.326 68.792 193.296 73.0196 189.238C77.2471 185.01 80.3755 179.599 82.4048 173.004H93.0582C87.6469 188.392 80.3755 200.06 71.244 208.008C62.1124 215.956 51.6281 219.93 39.7909 219.93C31.3358 219.93 24.6562 217.309 19.7522 212.067C15.0173 206.655 12.6499 199.13 12.6499 189.492Z" fill="#F4F4F4"/>
<path d="M80.4082 30.4386C80.4082 32.6369 80.2391 35.0889 79.9009 37.7945C79.5627 40.6692 79.0554 43.7131 78.379 46.9261L51.238 174.007L13.6972 179.08L42.8674 42.1066C43.2056 40.5847 43.4593 39.1473 43.6284 37.7945C43.7975 36.6108 43.882 35.3425 43.882 33.9897C43.882 30.6077 43.121 28.1557 41.5991 26.6337C39.9081 25.2809 37.2025 24.6045 33.4822 24.6045C28.7473 24.6045 24.2661 26.6338 20.0385 30.6922C15.811 34.9198 12.6826 40.3311 10.6533 46.9261L-0.000139754 46.9261C5.41115 31.5377 12.6826 19.8696 21.8141 11.9218C30.9457 3.97398 41.43 4.84621e-05 53.2672 4.74272e-05C61.7223 4.66881e-05 68.4019 2.62115 73.3059 7.86333C78.0408 13.2746 80.4082 20.7997 80.4082 30.4386Z" fill="#F4F4F4"/>
<path d="M186.091 113.343C186.091 126.866 180.551 138.679 169.472 148.781C158.393 158.72 145.195 164.096 129.88 164.911C129.717 167.681 129.554 169.799 129.391 171.265C129.391 172.569 129.391 173.709 129.391 174.687C129.391 182.182 130.613 187.477 133.057 190.573C135.664 193.668 140.307 195.216 146.988 195.216C154.645 195.216 161.651 193.505 168.006 190.084C174.523 186.499 181.936 179.982 190.246 170.532H198.555C189.105 185.848 178.841 197.253 167.761 204.748C156.682 212.08 144.544 215.746 131.346 215.746C118.8 215.746 109.269 212.487 102.752 205.97C96.3974 199.452 93.2202 189.758 93.2202 176.886C93.2202 167.599 94.6866 157.742 97.6194 147.314C100.552 136.887 104.462 127.6 109.35 119.453C115.379 109.677 122.548 102.345 130.857 97.4574C139.33 92.4065 148.78 89.8811 159.207 89.8811C168.169 89.8811 174.849 91.8362 179.248 95.7466C183.81 99.494 186.091 105.36 186.091 113.343ZM161.163 102.834C155.623 102.834 150.002 107.804 144.299 117.742C138.76 127.518 134.605 139.331 131.835 153.18C141.285 152.528 149.513 148.211 156.519 140.227C163.688 132.08 167.273 122.956 167.273 112.854C167.273 109.433 166.784 106.907 165.806 105.278C164.829 103.649 163.281 102.834 161.163 102.834Z" fill="#F4F4F4"/>
<path d="M272.01 103.323V105.034L274.699 92.0806H309.892L292.295 175.176C291.969 176.642 291.725 178.027 291.562 179.33C291.399 180.471 291.318 181.693 291.318 182.996C291.318 186.581 292.132 189.269 293.762 191.062C295.391 192.691 297.916 193.505 301.338 193.505C305.574 193.505 309.403 191.55 312.824 187.64C316.246 183.567 319.016 177.864 321.134 170.532H331.399C326.185 185.522 319.423 196.846 311.114 204.503C302.804 211.998 293.191 215.746 282.275 215.746C275.269 215.746 269.648 213.79 265.411 209.88C261.338 205.97 258.976 200.43 258.324 193.261C253.273 200.756 247.652 206.377 241.461 210.125C235.432 213.872 228.915 215.746 221.909 215.746C211.807 215.746 203.823 212.324 197.958 205.481C192.255 198.638 189.404 188.943 189.404 176.398C189.404 167.274 190.789 157.742 193.559 147.803C196.328 137.864 200.157 128.822 205.045 120.675C211.074 111.062 218.08 103.73 226.063 98.6794C234.047 93.4655 242.764 90.8586 252.214 90.8586C258.568 90.8586 263.456 91.9992 266.878 94.2802C270.299 96.3983 272.01 99.4125 272.01 103.323ZM269.811 115.298C269.811 112.854 268.914 110.736 267.122 108.944C265.33 106.989 262.886 106.011 259.79 106.011C250.829 106.011 242.845 113.506 235.839 128.496C228.996 143.486 225.575 158.312 225.575 172.976C225.575 179.33 226.471 184.137 228.263 187.396C230.055 190.491 233.232 192.039 237.795 192.039C242.031 192.039 246.104 190.002 250.014 185.929C254.088 181.856 256.776 176.724 258.08 170.532L269.811 115.298Z" fill="#F4F4F4"/>
<path d="M386.478 31.2257C394.461 31.2257 401.223 33.7511 406.763 38.802C412.465 43.8529 415.317 50.1258 415.317 57.6206C415.317 59.5758 415.235 61.368 415.072 62.9974C415.072 64.6267 414.909 66.1745 414.583 67.6409H403.097C403.423 65.034 403.586 63.4861 403.586 62.9974C403.586 62.3456 403.586 61.6939 403.586 61.0422C403.586 58.4353 402.689 56.3986 400.897 54.9322C399.268 53.4659 397.068 52.7327 394.299 52.7327C390.225 52.7327 386.641 54.4434 383.545 57.865C380.612 61.2866 378.494 66.256 377.191 72.7732L373.036 92.0806H390.877L389.166 101.857H371.081L342.975 233.831C340.042 247.68 334.91 258.026 327.578 264.869C320.246 271.876 310.796 275.379 299.228 275.379C291.244 275.379 284.483 272.853 278.943 267.802C273.24 262.751 270.389 256.479 270.389 248.984C270.389 240.511 273.24 233.587 278.943 228.21C284.483 222.833 295.643 217.538 312.425 212.324L341.998 72.7732C344.93 59.087 350.144 48.7408 357.639 41.7348C365.134 34.7287 374.747 31.2257 386.478 31.2257ZM310.715 220.389C301.265 223.485 294.422 227.069 290.185 231.143C285.949 235.216 283.831 240.022 283.831 245.562C283.831 247.517 284.89 249.31 287.008 250.939C288.963 252.731 291.163 253.627 293.607 253.627C296.703 253.627 299.472 251.998 301.916 248.739C304.36 245.481 306.234 240.756 307.537 234.564L310.715 220.389Z" fill="#F4F4F4"/>
<path d="M384.425 186.418C384.425 184.3 384.588 181.937 384.914 179.33C385.24 176.561 385.729 173.628 386.38 170.532L412.531 48.0891L448.702 43.2012L420.596 175.176C420.27 176.642 420.026 178.027 419.863 179.33C419.7 180.471 419.618 181.693 419.618 182.996C419.618 186.255 420.352 188.618 421.818 190.084C423.447 191.387 426.054 192.039 429.639 192.039C434.201 192.039 438.519 190.084 442.592 186.174C446.665 182.1 449.679 176.886 451.634 170.532H461.899C456.685 185.359 449.679 196.601 440.881 204.259C432.083 211.917 421.981 215.746 410.576 215.746C402.429 215.746 395.993 213.22 391.268 208.169C386.706 202.956 384.425 195.705 384.425 186.418Z" fill="#F4F4F4"/>
<path d="M537.412 113.343C537.412 126.866 531.873 138.679 520.793 148.781C509.714 158.72 496.516 164.096 481.201 164.911C481.038 167.681 480.875 169.799 480.712 171.265C480.712 172.569 480.712 173.709 480.712 174.687C480.712 182.182 481.934 187.477 484.378 190.573C486.985 193.668 491.628 195.216 498.309 195.216C505.966 195.216 512.972 193.505 519.327 190.084C525.844 186.499 533.257 179.982 541.567 170.532H549.876C540.426 185.848 530.162 197.253 519.082 204.748C508.003 212.08 495.865 215.746 482.667 215.746C470.121 215.746 460.59 212.487 454.073 205.97C447.718 199.452 444.541 189.758 444.541 176.886C444.541 167.599 446.008 157.742 448.94 147.314C451.873 136.887 455.784 127.6 460.671 119.453C466.7 109.677 473.869 102.345 482.178 97.4574C490.651 92.4065 500.101 89.8811 510.529 89.8811C519.49 89.8811 526.17 91.8362 530.569 95.7466C535.131 99.494 537.412 105.36 537.412 113.343ZM512.484 102.834C506.944 102.834 501.323 107.804 495.62 117.742C490.081 127.518 485.926 139.331 483.156 153.18C492.606 152.528 500.834 148.211 507.84 140.227C515.009 132.08 518.594 122.956 518.594 112.854C518.594 109.433 518.105 106.907 517.127 105.278C516.15 103.649 514.602 102.834 512.484 102.834Z" fill="#F4F4F4"/>
<path d="M550.308 92.0806H558.373L565.705 58.3538L601.876 53.4659L593.566 92.0806H608.23L606.275 101.857H591.611L575.97 175.176C575.644 176.642 575.399 178.027 575.236 179.33C575.074 180.471 574.992 181.693 574.992 182.996C574.992 186.255 575.725 188.618 577.192 190.084C578.821 191.387 581.428 192.039 585.012 192.039C589.574 192.039 593.892 190.084 597.965 186.174C602.039 182.1 605.053 176.886 607.008 170.532H617.273C612.059 185.359 605.053 196.601 596.255 204.259C587.456 211.917 577.355 215.746 565.949 215.746C557.803 215.746 551.367 213.22 546.642 208.169C542.08 202.956 539.799 195.705 539.799 186.418C539.799 184.3 539.962 181.937 540.288 179.33C540.614 176.561 541.102 173.628 541.754 170.532L556.418 101.857H548.353L550.308 92.0806Z" fill="#F4F4F4"/>
<path d="M641.126 68.1297C641.126 67.315 640.882 66.5818 640.393 65.9301C639.904 65.2784 639.171 64.6267 638.194 63.9749C634.609 61.8568 631.921 59.4943 630.128 56.8874C628.336 54.2805 627.44 51.5107 627.44 48.5779C627.44 43.8529 629.151 39.8611 632.572 36.6024C636.157 33.1809 640.393 31.4701 645.281 31.4701C650.006 31.4701 653.754 32.9365 656.523 35.8693C659.456 38.802 660.923 42.7124 660.923 47.6003C660.923 54.1176 658.234 61.2051 652.857 68.8629C647.481 76.3577 640.312 82.9565 631.35 88.6591C630.536 88.1703 629.966 87.6815 629.64 87.1927C629.314 86.5409 629.151 85.8892 629.151 85.2375L641.126 68.1297Z" fill="#F4F4F4"/>
<path d="M758.116 173.465C758.116 175.42 758.035 177.131 757.872 178.597C757.709 180.064 757.465 181.449 757.139 182.752C760.397 180.797 763.574 178.76 766.67 176.642C769.766 174.524 772.454 172.487 774.735 170.532H785C779.949 176.398 774.328 181.856 768.137 186.907C762.108 191.795 755.265 196.52 747.607 201.082C743.208 205.807 737.587 209.473 730.744 212.08C723.901 214.524 716.732 215.746 709.237 215.746C698.32 215.746 689.604 212.813 683.086 206.947C676.732 200.919 673.555 193.424 673.555 184.463C673.555 179.412 674.777 174.85 677.221 170.777C679.665 166.54 682.76 163.526 686.508 161.734C692.047 151.795 697.18 141.204 701.905 129.962C706.793 118.557 711.681 105.034 716.569 89.3923L752.74 84.5043C753.228 96.7242 753.799 107.885 754.45 117.987C755.102 128.088 755.917 139.086 756.894 150.98C757.383 157.823 757.709 162.63 757.872 165.4C758.035 168.17 758.116 170.858 758.116 173.465ZM718.035 115.787C715.917 122.467 713.31 129.473 710.214 136.805C707.282 143.974 703.29 152.365 698.239 161.978C700.031 162.793 701.416 163.933 702.394 165.4C703.371 166.866 703.86 168.577 703.86 170.532C703.86 173.628 702.801 176.398 700.683 178.842C698.565 181.286 696.039 182.508 693.107 182.508C691.477 182.508 690.092 182.263 688.952 181.774C687.811 181.123 686.997 180.308 686.508 179.33C686.508 185.359 687.648 189.758 689.929 192.528C692.373 195.135 696.202 196.438 701.416 196.438C708.096 196.438 713.31 194.483 717.058 190.573C720.805 186.662 722.679 181.041 722.679 173.709C722.679 171.428 722.597 169.147 722.434 166.866C722.271 164.422 721.945 160.43 721.457 154.891C720.642 147.233 719.99 140.471 719.501 134.606C719.013 128.74 718.524 122.467 718.035 115.787Z" fill="#F4F4F4"/>
</svg>
