<svg width="293" height="120" viewBox="0 0 293 120" fill="none" xmlns="http://www.w3.org/2000/svg">
<path d="M0.883057 92.0914V0.364746H12.6692L44.5685 56.2206H45.081L76.9803 0.364746H88.7664V92.0914H76.9803V37.6447L77.4927 22.2715H76.9803L48.2837 72.6187H41.3657L12.6692 22.2715H12.1567L12.6692 37.6447V92.0914H0.883057Z" fill="white"/>
<path d="M125.022 94.1411C118.36 94.1411 112.787 92.2195 108.303 88.3762C103.819 84.5329 101.577 79.4726 101.577 73.1311C101.577 66.2773 104.204 60.9607 109.52 57.0534C114.837 53.146 121.37 51.2244 129.121 51.2244C136.039 51.2244 141.74 52.5055 146.16 55.0677V53.2741C146.16 48.6621 144.558 44.947 141.42 42.1926C138.281 39.4382 134.374 38.029 129.762 38.029C126.367 38.029 123.228 38.8617 120.474 40.4631C117.719 42.0645 115.798 44.3064 114.773 47.1248L104.012 42.5129C105.485 38.7336 108.303 35.2747 112.595 32.0719C116.887 28.8692 122.523 27.2678 129.505 27.2678C137.512 27.2678 144.174 29.6379 149.491 34.3139C154.807 38.9899 157.433 45.6516 157.433 54.1709V92.0914H146.16V83.3799H145.647C140.971 90.5541 134.053 94.1411 125.022 94.1411V94.1411ZM126.943 83.3799C131.811 83.3799 136.231 81.5864 140.203 77.9352C144.174 74.2841 146.16 69.9925 146.16 65.0602C142.829 62.3059 137.833 60.9607 131.171 60.9607C125.47 60.9607 121.114 62.1777 118.232 64.6759C115.349 67.174 113.876 70.0565 113.876 73.3874C113.876 76.462 115.221 78.8961 117.847 80.6896C120.474 82.4831 123.548 83.3799 126.943 83.3799Z" fill="white"/>
<path d="M203.361 94.1411C198.557 94.1411 194.265 93.1163 190.486 91.0665C186.707 89.0168 183.824 86.4546 181.966 83.3799H181.454L181.966 92.0914V119.763H170.18V29.3176H181.454V38.029H181.966C183.824 34.9544 186.707 32.3922 190.486 30.3425C194.265 28.2927 198.557 27.2678 203.361 27.2678C211.496 27.2678 218.478 30.4706 224.371 36.8761C230.264 43.2816 233.21 51.2244 233.21 60.7045C233.21 70.1846 230.264 78.1274 224.371 84.5329C218.478 90.9384 211.496 94.1411 203.361 94.1411V94.1411ZM201.439 83.3799C206.884 83.3799 211.624 81.3302 215.531 77.1666C219.439 73.003 221.424 67.5584 221.424 60.7045C221.424 53.8506 219.439 48.4059 215.531 44.2424C211.624 40.0788 206.884 38.029 201.439 38.029C195.866 38.029 191.19 40.0788 187.283 44.1783C183.376 48.2778 181.454 53.7866 181.454 60.7045C181.454 67.6224 183.376 73.1311 187.283 77.2307C191.19 81.3302 195.93 83.3799 201.439 83.3799V83.3799Z" fill="white"/>
<path d="M267.352 94.1411C260.37 94.1411 254.541 92.4117 249.993 89.0167C245.445 85.6218 242.05 81.3301 239.936 76.2058L250.441 71.85C253.772 79.7288 259.473 83.6362 267.48 83.6362C271.131 83.6362 274.141 82.8034 276.511 81.2021C278.881 79.6007 280.034 77.4228 280.034 74.7966C280.034 70.6971 277.152 67.9427 271.451 66.4694L258.768 63.3948C254.733 62.3699 250.954 60.4483 247.366 57.5658C243.779 54.6833 241.986 50.84 241.986 45.9718C241.986 40.3991 244.42 35.9152 249.352 32.4563C254.284 28.9973 260.113 27.2678 266.839 27.2678C272.412 27.2678 277.344 28.5489 281.7 31.0471C286.056 33.5452 289.194 37.1963 291.052 41.8723L280.803 46.1C278.497 40.5272 273.693 37.7728 266.455 37.7728C262.932 37.7728 259.985 38.4774 257.615 39.9507C255.245 41.424 254.028 43.3456 254.028 45.8437C254.028 49.4308 256.782 51.8649 262.355 53.146L274.782 56.0925C280.675 57.4377 285.031 59.8077 287.849 63.1386C290.668 66.4694 292.077 70.2487 292.077 74.4122C292.077 80.0491 289.771 84.7251 285.159 88.5043C280.547 92.2195 274.59 94.1411 267.352 94.1411Z" fill="white"/>
</svg>
